<svg width="163" height="35" viewBox="0 0 163 35" fill="none" xmlns="http://www.w3.org/2000/svg">
<path fill-rule="evenodd" clip-rule="evenodd" d="M5.59531 9.23609C8.33565 5.73387 12.7239 3.46493 17.6698 3.46493C22.6448 3.46493 27.0553 5.76065 29.7924 9.29799C29.6759 9.41181 29.5698 9.52978 29.4737 9.64759C28.9724 10.2645 28.5951 11.059 28.293 11.8659C27.6844 13.4887 27.2202 15.6085 26.7904 17.5935L26.7522 17.7719C26.3234 19.7533 25.9248 21.5959 25.4428 22.9638C25.2263 23.5783 25.021 24.0128 24.8389 24.291C24.6489 24.0105 24.4334 23.5708 24.2052 22.9475C23.6898 21.5403 23.2562 19.6263 22.7967 17.5827L22.7818 17.5157V17.5157C22.3401 15.5527 21.8717 13.4699 21.2876 11.8756C20.9941 11.0747 20.6341 10.2881 20.1632 9.67694C19.701 9.07718 18.9317 8.40029 17.8065 8.40029C16.6884 8.40029 15.9156 9.06983 15.4467 9.66287C14.9667 10.2701 14.5924 11.0534 14.2842 11.8547C13.6633 13.4682 13.1557 15.5789 12.6833 17.5666L12.6346 17.7719C12.1668 19.7409 11.7295 21.5818 11.2331 22.9523C11.0437 23.4757 10.8648 23.8739 10.703 24.1583C10.5448 23.8752 10.3704 23.4797 10.1861 22.9607C9.70994 21.6194 9.29278 19.8301 8.84475 17.9083L8.76631 17.5719C8.30211 15.583 7.79847 13.4685 7.16879 11.85C6.85594 11.0457 6.47327 10.2584 5.97809 9.64838C5.86595 9.5103 5.73853 9.37013 5.59531 9.23609ZM3.93678 11.9253C4.0673 12.1701 4.20537 12.4736 4.34812 12.8406C4.89318 14.2416 5.35491 16.1533 5.83041 18.1905L5.92296 18.5875C6.35588 20.4464 6.80622 22.38 7.33668 23.8739C7.61882 24.6684 7.95954 25.4466 8.39771 26.0514C8.81209 26.6235 9.55549 27.3623 10.6986 27.3623C11.8383 27.3623 12.5835 26.627 13.0007 26.0576C13.4426 25.4542 13.7889 24.6769 14.0767 23.8818C14.6285 22.3584 15.0983 20.3794 15.5479 18.4855V18.4854L15.6167 18.1959C16.1011 16.1574 16.5675 14.2419 17.1086 12.8358C17.3592 12.1843 17.5939 11.7305 17.7981 11.449C17.9918 11.7281 18.213 12.1747 18.4476 12.815C18.9631 14.2222 19.3962 16.1361 19.8559 18.1798L19.871 18.2467C20.3125 20.2098 20.7809 22.2926 21.365 23.8867C21.6585 24.6879 22.0185 25.4745 22.4894 26.0855C22.9517 26.6854 23.7209 27.3623 24.8459 27.3623C25.9769 27.3623 26.7434 26.6792 27.2001 26.074C27.6639 25.4599 28.0127 24.6707 28.2944 23.8708C28.8359 22.3344 29.2664 20.3408 29.6769 18.4444V18.4443L29.7357 18.169C30.1778 16.1278 30.6019 14.2214 31.1259 12.8246C31.2393 12.5208 31.3511 12.2617 31.4577 12.0441C32.2604 13.7921 32.7056 15.7223 32.7056 17.7513C32.7056 25.6413 25.9741 32.0377 17.6698 32.0377C9.36565 32.0377 2.63379 25.6413 2.63379 17.7513C2.63379 15.6762 3.09941 13.7044 3.93678 11.9253ZM17.6698 0.607666C7.70481 0.607666 -0.373413 8.28312 -0.373413 17.7513C-0.373413 27.2194 7.70481 34.8948 17.6698 34.8948C27.635 34.8948 35.7128 27.2194 35.7128 17.7513C35.7128 8.28312 27.635 0.607666 17.6698 0.607666ZM18.0136 11.2098C18.0136 11.2101 18.01 11.2128 18.003 11.2167C18.01 11.2114 18.0136 11.2095 18.0136 11.2098ZM17.5979 11.2117C17.5909 11.2077 17.5875 11.2049 17.5875 11.2045C17.5875 11.2042 17.591 11.2062 17.5979 11.2117ZM24.6173 24.5623C24.6173 24.5623 24.6205 24.5592 24.627 24.5552C24.6205 24.5605 24.6173 24.5627 24.6173 24.5623ZM25.0545 24.5508C25.0615 24.5548 25.0652 24.5574 25.0652 24.5579C25.0652 24.5583 25.0615 24.5561 25.0545 24.5508ZM10.3904 24.5879C10.3903 24.5875 10.3947 24.5835 10.4034 24.5778C10.3948 24.5853 10.3904 24.5884 10.3904 24.5879ZM10.9994 24.5804C11.008 24.5862 11.0123 24.5901 11.0123 24.5906C11.0123 24.591 11.0079 24.5884 10.9994 24.5804Z" fill="#81818B"/>
<path d="M45.6758 27.9007L41.3004 13.6801H45.1329L47.728 23.9154L50.7452 13.6801H55.0302L58.0479 23.9154L60.6729 13.6801H64.5054L60.0996 27.9007H56.0865L52.8877 17.2639L49.6894 27.9007H45.6758Z" fill="#81818B"/>
<path d="M70.1287 28.2449C68.8414 28.2449 67.7851 28.0533 66.9604 27.6711C66.1361 27.2698 65.5224 26.7442 65.1197 26.0943C64.7176 25.4444 64.5165 24.7277 64.5165 23.9442C64.5165 22.6254 65.0593 21.5549 66.1456 20.733C67.2318 19.9112 68.8619 19.5002 71.0344 19.5002H74.8364V19.1562C74.8364 18.1813 74.5445 17.4646 73.9612 17.0059C73.378 16.5471 72.6535 16.3178 71.7888 16.3178C71.0039 16.3178 70.3198 16.4993 69.7366 16.8625C69.1533 17.2066 68.791 17.7226 68.6503 18.4107H64.8782C64.979 17.3786 65.3413 16.4802 65.9644 15.7157C66.6086 14.9512 67.4334 14.3682 68.4388 13.9668C69.4452 13.5463 70.5713 13.3361 71.8187 13.3361C73.9513 13.3361 75.6307 13.8425 76.8582 14.8556C78.0851 15.8686 78.6988 17.3022 78.6988 19.1562V27.9007H75.4092L75.0475 25.6072C74.6049 26.3717 73.9812 27.0022 73.1769 27.4995C72.392 27.9963 71.3761 28.2449 70.1287 28.2449ZM71.0039 25.3776C72.1106 25.3776 72.9653 25.0334 73.5685 24.3455C74.1922 23.6575 74.5849 22.8067 74.7461 21.7938H71.4565C70.4306 21.7938 69.6967 21.9754 69.2536 22.3386C68.8115 22.6824 68.59 23.1129 68.59 23.6287C68.59 24.1831 68.8115 24.6131 69.2536 24.9188C69.6967 25.2245 70.2794 25.3776 71.0039 25.3776Z" fill="#81818B"/>
<path d="M84.7788 27.9007L79.2874 13.6801H83.3304L87.1324 24.4317L90.9345 13.6801H94.978L89.4561 27.9007H84.7788Z" fill="#81818B"/>
<path d="M102.742 28.2449C101.234 28.2449 99.8961 27.9388 98.7291 27.3273C97.5625 26.7155 96.6474 25.8554 95.9833 24.7467C95.3192 23.6385 94.9879 22.3577 94.9879 20.905C94.9879 19.4333 95.3097 18.124 95.9529 16.9772C96.617 15.8304 97.5221 14.9416 98.6692 14.3108C99.8352 13.661 101.203 13.3361 102.773 13.3361C104.241 13.3361 105.539 13.6419 106.665 14.2535C107.792 14.8651 108.667 15.7061 109.29 16.7765C109.934 17.8277 110.256 19.0032 110.256 20.303C110.256 20.5132 110.246 20.733 110.226 20.9624C110.226 21.1918 110.216 21.4307 110.196 21.6791H98.8199C98.9002 22.7877 99.3029 23.6575 100.027 24.2884C100.771 24.9188 101.666 25.2343 102.713 25.2343C103.497 25.2343 104.151 25.0719 104.674 24.7467C105.216 24.403 105.619 23.9632 105.881 23.4279H109.803C109.522 24.3264 109.049 25.1485 108.385 25.8939C107.741 26.6199 106.937 27.1933 105.971 27.614C105.026 28.0343 103.949 28.2449 102.742 28.2449ZM102.773 16.3178C101.828 16.3178 100.992 16.5758 100.268 17.0919C99.5439 17.5888 99.0813 18.3534 98.8797 19.3855H106.333C106.273 18.4489 105.911 17.7035 105.247 17.1492C104.583 16.5949 103.759 16.3178 102.773 16.3178Z" fill="#81818B"/>
<path d="M112.298 27.9007V7.25781H116.16V27.9007H112.298Z" fill="#81818B"/>
<path d="M126.171 28.2449C124.663 28.2449 123.325 27.9388 122.158 27.3273C120.992 26.7155 120.077 25.8554 119.413 24.7467C118.748 23.6385 118.417 22.3577 118.417 20.905C118.417 19.4333 118.739 18.124 119.382 16.9772C120.046 15.8304 120.951 14.9416 122.098 14.3108C123.265 13.661 124.633 13.3361 126.202 13.3361C127.67 13.3361 128.968 13.6419 130.095 14.2535C131.221 14.8651 132.097 15.7061 132.72 16.7765C133.363 17.8277 133.686 19.0032 133.686 20.303C133.686 20.5132 133.675 20.733 133.655 20.9624C133.655 21.1918 133.645 21.4307 133.625 21.6791H122.249C122.329 22.7877 122.732 23.6575 123.456 24.2884C124.2 24.9188 125.096 25.2343 126.142 25.2343C126.926 25.2343 127.58 25.0719 128.103 24.7467C128.646 24.403 129.048 23.9632 129.31 23.4279H133.233C132.951 24.3264 132.478 25.1485 131.815 25.8939C131.17 26.6199 130.366 27.1933 129.4 27.614C128.455 28.0343 127.379 28.2449 126.171 28.2449ZM126.202 16.3178C125.257 16.3178 124.422 16.5758 123.697 17.0919C122.973 17.5888 122.511 18.3534 122.309 19.3855H129.762C129.702 18.4489 129.34 17.7035 128.676 17.1492C128.012 16.5949 127.188 16.3178 126.202 16.3178Z" fill="#81818B"/>
<path d="M141.913 28.2449C140.585 28.2449 139.418 28.044 138.413 27.6428C137.406 27.222 136.602 26.6487 135.998 25.9222C135.395 25.1962 135.033 24.3552 134.912 23.3996H138.804C138.925 23.9535 139.248 24.4317 139.77 24.833C140.313 25.2152 141.007 25.4064 141.852 25.4064C142.697 25.4064 143.311 25.244 143.693 24.9188C144.095 24.5941 144.296 24.2212 144.296 23.8008C144.296 23.189 144.015 22.778 143.452 22.5678C142.888 22.3386 142.104 22.1188 141.098 21.9085C140.455 21.7747 139.801 21.6123 139.137 21.4211C138.473 21.23 137.859 20.991 137.296 20.7044C136.753 20.3985 136.31 20.0163 135.968 19.5575C135.626 19.0797 135.455 18.4967 135.455 17.8086C135.455 16.5471 135.978 15.4864 137.025 14.6262C138.09 13.7661 139.579 13.3361 141.49 13.3361C143.261 13.3361 144.669 13.7279 145.715 14.5115C146.781 15.2952 147.414 16.3751 147.616 17.7513H143.965C143.743 16.7001 142.908 16.1744 141.46 16.1744C140.736 16.1744 140.173 16.3082 139.77 16.5758C139.388 16.8434 139.197 17.1779 139.197 17.5793C139.197 17.9998 139.489 18.3343 140.072 18.5828C140.656 18.8312 141.43 19.0606 142.395 19.2709C143.441 19.5002 144.397 19.7582 145.262 20.0449C146.147 20.3125 146.851 20.7235 147.375 21.2778C147.897 21.8129 148.159 22.5869 148.159 23.6C148.179 24.4795 147.937 25.2723 147.435 25.9797C146.932 26.6867 146.208 27.2411 145.262 27.6428C144.317 28.044 143.2 28.2449 141.913 28.2449Z" fill="#81818B"/>
<path d="M156.559 28.2449C155.232 28.2449 154.065 28.044 153.059 27.6428C152.053 27.222 151.249 26.6487 150.645 25.9222C150.042 25.1962 149.679 24.3552 149.559 23.3996H153.451C153.572 23.9535 153.894 24.4317 154.417 24.833C154.96 25.2152 155.654 25.4064 156.499 25.4064C157.344 25.4064 157.958 25.244 158.34 24.9188C158.742 24.5941 158.943 24.2212 158.943 23.8008C158.943 23.189 158.662 22.778 158.098 22.5678C157.535 22.3386 156.751 22.1188 155.745 21.9085C155.101 21.7747 154.447 21.6123 153.783 21.4211C153.12 21.23 152.506 20.991 151.943 20.7044C151.4 20.3985 150.957 20.0163 150.615 19.5575C150.273 19.0797 150.102 18.4967 150.102 17.8086C150.102 16.5471 150.625 15.4864 151.671 14.6262C152.737 13.7661 154.226 13.3361 156.137 13.3361C157.907 13.3361 159.315 13.7279 160.361 14.5115C161.427 15.2952 162.061 16.3751 162.263 17.7513H158.611C158.39 16.7001 157.555 16.1744 156.107 16.1744C155.382 16.1744 154.819 16.3082 154.417 16.5758C154.035 16.8434 153.844 17.1779 153.844 17.5793C153.844 17.9998 154.135 18.3343 154.719 18.5828C155.302 18.8312 156.076 19.0606 157.042 19.2709C158.088 19.5002 159.044 19.7582 159.909 20.0449C160.794 20.3125 161.498 20.7235 162.021 21.2778C162.544 21.8129 162.806 22.5869 162.806 23.6C162.826 24.4795 162.584 25.2723 162.081 25.9797C161.578 26.6867 160.854 27.2411 159.909 27.6428C158.963 28.044 157.847 28.2449 156.559 28.2449Z" fill="#81818B"/>
</svg>
